<?xml version="1.0" encoding="iso-8859-1"?>
<!-- Generator: Adobe Illustrator 19.0.0, SVG Export Plug-In . SVG Version: 6.00 Build 0)  -->
<svg version="1.1" id="Layer_1" xmlns="http://www.w3.org/2000/svg" xmlns:xlink="http://www.w3.org/1999/xlink" x="0px" y="0px"
	 viewBox="0 0 392.674 392.674" style="enable-background:new 0 0 392.674 392.674;" xml:space="preserve">
<path style="fill:#194F82;" d="M374.634,280.184L226.4,166.277L112.493,18.042C96.396-2.774,64.46-7.235,42.933,13.452
	L13.519,42.866C-6.134,63.359-4,94.325,18.109,112.426L154.06,217.024c-12.412,2.844-29.673,4.008-46.222-4.008
	c-5.43-2.651-11.96-0.388-14.545,5.107c-2.651,5.43-0.453,12.218,5.107,14.545c25.665,10.796,43.055,8.145,45.77,7.887
	c-6.982,17.648-9.115,41.115,7.111,63.418c2.133,2.909,10.731,5.624,15.192,2.392c4.848-3.491,5.947-10.343,2.392-15.192
	c-18.618-25.6-0.453-51.523,3.556-56.695l107.701,140.154c16.097,20.816,48.032,25.277,69.56,4.59l29.414-29.414
	C398.812,329.186,396.678,298.285,374.634,280.184z M118.957,131.044c-4.267-4.267-11.119-4.267-15.451,0l-11.055,11.055
	l-13.188-10.15l25.212-25.212c4.267-4.267,4.267-11.119,0-15.451c-4.267-4.267-11.119-4.267-15.451,0l-27.152,27.281L31.426,95.165
	c-11.572-9.18-12.347-27.281-2.392-36.784l29.414-29.414c10.149-10.667,27.669-8.986,36.784,2.392l108.865,141.705l-31.03,31.03
	l-63.16-48.549l9.051-9.051C123.224,142.228,123.224,135.311,118.957,131.044z M363.709,334.293l-29.414,29.414
	c-10.15,10.667-27.669,8.986-36.784-2.392L188.582,219.61l31.03-31.03l141.705,108.865
	C372.889,306.753,373.664,324.79,363.709,334.293z"/>
<g>
	<path style="fill:#56ACE0;" d="M61.874,118.632l27.216-27.216c4.267-4.267,11.119-4.267,15.451,0
		c4.267,4.267,4.267,11.119,0,15.451l-25.212,25.212l13.188,10.149l11.055-11.055c4.267-4.267,11.119-4.267,15.451,0
		c4.267,4.267,4.267,11.119,0,15.451l-9.05,9.05l63.16,48.549l30.966-30.966L95.167,31.359
		c-9.115-11.378-26.634-13.059-36.784-2.392L28.969,58.382c-9.956,9.503-9.18,27.604,2.392,36.784L61.874,118.632z"/>
	<path style="fill:#56ACE0;" d="M363.709,334.293c9.956-9.503,9.18-27.604-2.392-36.784L219.612,188.58l-31.03,31.03
		l108.865,141.705c9.115,11.378,26.634,13.059,36.784,2.392L363.709,334.293z"/>
</g>
<g>
</g>
<g>
</g>
<g>
</g>
<g>
</g>
<g>
</g>
<g>
</g>
<g>
</g>
<g>
</g>
<g>
</g>
<g>
</g>
<g>
</g>
<g>
</g>
<g>
</g>
<g>
</g>
<g>
</g>
</svg>
