<?xml version="1.0" encoding="iso-8859-1"?>
<!-- Generator: Adobe Illustrator 19.0.0, SVG Export Plug-In . SVG Version: 6.00 Build 0)  -->
<svg version="1.1" id="Layer_1" xmlns="http://www.w3.org/2000/svg" xmlns:xlink="http://www.w3.org/1999/xlink" x="0px" y="0px"
	 viewBox="0 0 392.663 392.663" style="enable-background:new 0 0 392.663 392.663;" xml:space="preserve">
<path style="fill:#194F82;" d="M387.854,85.075c-4.913-3.491-11.766-2.263-15.127,2.715
	c-39.564,57.018-29.737,135.758-23.596,167.37H230.634c-6.012,0-10.925,4.848-10.925,10.925c0,6.077,4.848,10.925,10.925,10.925
	h10.796v104.727c0,6.012,4.848,10.925,10.925,10.925c6.012,0,10.925-4.849,10.925-10.925v-46.933h66.844v46.933
	c0,6.012,4.848,10.925,10.925,10.925c6.012,0,10.925-4.849,10.925-10.925V277.01h10.796c7.952-0.517,12.024-6.982,10.537-13.77
	c-0.259-1.034-26.246-100.073,17.325-162.974C394.06,95.289,392.832,88.501,387.854,85.075z M330.125,312.954h-66.909v-36.008
	h66.909V312.954z"/>
<path style="fill:#56ACE0;" d="M196.306,21.786c-30.384,0-55.143,24.695-55.143,55.143c0,30.384,24.76,55.143,55.143,55.143
	s55.143-24.76,55.143-55.143S226.69,21.786,196.306,21.786z"/>
<g>
	<path style="fill:#194F82;" d="M196.306,0c-42.408,0-76.994,34.521-76.994,76.994s34.586,76.929,76.994,76.929
		S273.3,119.402,273.3,76.929S238.715,0,196.306,0z M196.306,132.073c-30.384,0-55.143-24.76-55.143-55.143
		s24.76-55.143,55.143-55.143s55.143,24.76,55.143,55.143S226.69,132.073,196.306,132.073z"/>
	<path style="fill:#194F82;" d="M174.262,87.855h22.044c6.012,0,10.925-4.848,10.925-10.925V43.96
		c0-6.012-4.848-10.925-10.925-10.925c-6.077,0-10.925,4.848-10.925,10.925v22.044h-11.119c-6.012,0-10.925,4.848-10.925,10.925
		C163.337,83.006,168.25,87.855,174.262,87.855z"/>
	<path style="fill:#194F82;" d="M201.09,188.897L13.098,151.531c-5.883-1.099-11.636,2.65-12.8,8.598
		c-1.164,5.883,2.651,11.636,8.598,12.8l14.675,2.909v205.77c0,6.012,4.848,10.925,10.925,10.925s10.925-4.848,10.925-10.925
		v-33.422h16.42c6.012,0,10.925-4.848,10.925-10.925s-4.848-10.925-10.925-10.925H45.292v-17.261H79.62
		c6.012,0,10.925-4.848,10.925-10.925s-4.848-10.925-10.925-10.925H45.292v-30.319H164.63v124.638
		c0,6.012,4.848,10.925,10.925,10.925c6.012,0,10.925-4.849,10.925-10.925V208.226c0,0,11.895,2.327,12.606,2.327
		c5.107,0,9.632-3.556,10.667-8.792C210.852,195.879,207.038,190.19,201.09,188.897z M164.63,235.184H45.292v-54.949l119.337,23.661
		V235.184z"/>
</g>
<polygon style="fill:#FFC10D;" points="45.292,235.184 164.63,235.184 164.63,203.895 45.292,180.17 "/>
<g>
</g>
<g>
</g>
<g>
</g>
<g>
</g>
<g>
</g>
<g>
</g>
<g>
</g>
<g>
</g>
<g>
</g>
<g>
</g>
<g>
</g>
<g>
</g>
<g>
</g>
<g>
</g>
<g>
</g>
</svg>
