<?xml version="1.0" encoding="iso-8859-1"?>
<!-- Generator: Adobe Illustrator 19.0.0, SVG Export Plug-In . SVG Version: 6.00 Build 0)  -->
<svg version="1.1" id="Layer_1" xmlns="http://www.w3.org/2000/svg" xmlns:xlink="http://www.w3.org/1999/xlink" x="0px" y="0px"
	 viewBox="0 0 392.533 392.533" style="enable-background:new 0 0 392.533 392.533;" xml:space="preserve">
<polygon style="fill:#FFFFFF;" points="147.21,253.156 130.207,370.747 262.474,370.747 245.472,253.156 "/>
<path style="fill:#194F82;" d="M281.028,246.109l29.026-75.572c2.457-7.24-2.327-14.545-10.214-14.804h-32.97v-9.632
	c0-30.061-24.501-54.562-54.562-54.562h-31.935c-30.061,0-54.562,24.501-54.562,54.562v9.632h-32.97
	c-7.952-0.259-13.059,8.275-10.214,14.804l28.962,75.572c1.616,4.267,5.624,7.046,10.214,7.046h3.297l-18.295,126.966
	c-0.453,10.731,6.4,12.412,10.796,12.412H275.08c7.046-0.711,10.925-4.655,10.796-12.412l-18.295-126.966h3.297
	C275.339,253.156,279.412,250.376,281.028,246.109z M130.207,370.747l17.002-117.592h98.392l17.002,117.592H130.207z
	 M147.662,146.036c0-18.036,14.675-32.711,32.711-32.711h31.935c18.036,0,32.711,14.675,32.711,32.711v9.632h-97.422v-9.632H147.662
	z M284.001,177.584l-20.622,53.786H129.367l-20.622-53.786L284.001,177.584L284.001,177.584z"/>
<path style="fill:#FFC10D;" d="M226.66,274.941h-60.574l-1.228,8.469h38.077c6.012,0,10.925,4.848,10.925,10.925
	c0,6.012-4.848,10.925-10.925,10.925H161.69l-1.939,13.382h20.816c6.012,0,10.925,4.848,10.925,10.925s-4.848,10.925-10.925,10.925
	h-23.984l-1.228,8.469h81.907L226.66,274.941z"/>
<polygon style="fill:#56ACE0;" points="129.367,231.37 263.379,231.37 284.001,177.584 108.745,177.584 "/>
<path style="fill:#FFC10D;" d="M245.02,146.036c0-18.036-14.675-32.711-32.711-32.711h-31.935
	c-18.036,0-32.711,14.675-32.711,32.711v9.632h97.358V146.036L245.02,146.036z"/>
<path style="fill:#FFFFFF;" d="M196.341,21.786c-9.956,0-18.101,8.145-18.101,18.101s8.145,18.101,18.101,18.101
	s18.101-8.145,18.101-18.101S206.296,21.786,196.341,21.786z"/>
<path style="fill:#194F82;" d="M196.341,0c-21.915,0-39.887,17.842-39.887,39.887s17.842,39.887,39.887,39.887
	s39.887-17.842,39.887-39.887S218.321,0,196.341,0z M196.341,57.923c-9.956,0-18.101-8.145-18.101-18.101
	s8.145-18.101,18.101-18.101s18.101,8.145,18.101,18.101S206.296,57.923,196.341,57.923z"/>
<g>
</g>
<g>
</g>
<g>
</g>
<g>
</g>
<g>
</g>
<g>
</g>
<g>
</g>
<g>
</g>
<g>
</g>
<g>
</g>
<g>
</g>
<g>
</g>
<g>
</g>
<g>
</g>
<g>
</g>
</svg>
