<?xml version="1.0" encoding="iso-8859-1"?>
<!-- Generator: Adobe Illustrator 19.0.0, SVG Export Plug-In . SVG Version: 6.00 Build 0)  -->
<svg version="1.1" id="Layer_1" xmlns="http://www.w3.org/2000/svg" xmlns:xlink="http://www.w3.org/1999/xlink" x="0px" y="0px"
	 viewBox="0 0 392.663 392.663" style="enable-background:new 0 0 392.663 392.663;" xml:space="preserve">
<path style="fill:#FFFFFF;" d="M359.919,21.786H189.382c-6.012,0-10.925,4.848-10.925,10.925v103.693
	c0,6.012,4.848,10.925,10.925,10.925h170.537c6.012,0,10.925-4.848,10.925-10.925V32.711
	C370.844,26.699,365.931,21.786,359.919,21.786z"/>
<path style="fill:#56ACE0;" d="M200.307,123.927V45.123c0-0.84,0.711-1.552,1.552-1.552h145.648c0.84,0,1.552,0.711,1.552,1.552
	v78.804c0,0.84-0.711,1.552-1.552,1.552H201.859C201.018,125.479,200.307,124.768,200.307,123.927z"/>
<g>
	<path style="fill:#194F82;" d="M328.436,117.592h-64.84c-6.012,0-10.925-4.848-10.925-10.925c0-6.012,4.848-10.925,10.925-10.925
		h64.84c6.012,0,10.925,4.848,10.925,10.925C339.297,112.743,334.448,117.592,328.436,117.592z"/>
	<path style="fill:#194F82;" d="M328.436,73.244h-99.556c-6.012,0-10.925-4.848-10.925-10.925c0-6.012,4.848-10.925,10.925-10.925
		h99.556c6.012,0,10.925,4.848,10.925,10.925C339.297,68.396,334.448,73.244,328.436,73.244z"/>
	<path style="fill:#194F82;" d="M359.919,0H189.382c-18.036,0-32.711,14.675-32.711,32.711v103.693
		c0,18.036,14.675,32.711,32.711,32.711h34.78l-29.349,136.792c-1.228,5.883,2.457,11.636,8.339,12.994
		c5.883,1.293,11.636-2.457,12.994-8.339l7.111-33.099h102.853l7.111,33.099c1.228,5.883,7.046,9.632,12.994,8.339
		c5.883-1.228,9.632-7.046,8.339-12.994l-29.479-136.792h34.844c18.036,0,32.711-14.675,32.711-32.711V32.711
		C392.63,14.675,377.956,0,359.919,0z M227.911,255.547l18.618-86.432h56.242l18.618,86.368h-93.479V255.547z M370.844,136.404
		c0,6.012-4.848,10.925-10.925,10.925H189.382c-6.012,0-10.925-4.848-10.925-10.925V32.711c0-6.012,4.848-10.925,10.925-10.925
		h170.537c6.012,0,10.925,4.848,10.925,10.925V136.404L370.844,136.404z"/>
</g>
<path style="fill:#FFC10D;" d="M115.75,276.105c4.848-1.099,8.598-5.43,8.598-10.667v-74.99c0-11.055-7.499-20.428-17.713-23.208
	l-23.79,48.032c-1.875,3.685-5.624,6.077-9.826,6.077c-4.202,0-7.952-2.327-9.762-6.077l-23.79-47.968
	c-10.149,2.78-17.648,12.154-17.648,23.079v75.055c0,5.172,3.685,9.568,8.598,10.667C31.257,276.17,114.974,276.17,115.75,276.105z"
	/>
<g>
	<path style="fill:#FFFFFF;" d="M73.083,106.537c10.537,0,19.071-8.598,19.071-19.071s-8.598-19.071-19.071-19.071
		s-19.071,8.598-19.071,19.071S62.61,106.537,73.083,106.537z"/>
	<path style="fill:#FFFFFF;" d="M104.63,370.747v-72.533H41.6v72.533h20.622v-54.109c0-6.012,4.848-10.925,10.925-10.925
		s10.925,4.848,10.925,10.925v54.109H104.63z"/>
</g>
<g>
	<path style="fill:#194F82;" d="M73.083,128.323c22.562,0,40.857-18.295,40.857-40.857S95.644,46.61,73.083,46.61
		S32.226,64.905,32.226,87.467S50.521,128.323,73.083,128.323z M73.083,68.396c10.537,0,19.071,8.598,19.071,19.071
		s-8.598,19.071-19.071,19.071s-19.071-8.533-19.071-19.071S62.61,68.396,73.083,68.396z"/>
	<path style="fill:#194F82;" d="M100.299,144.743c-4.202,0-7.952,2.327-9.826,6.077l-17.455,35.232L55.564,150.82
		c-1.875-3.685-5.624-6.077-9.762-6.077c-25.212,0-45.77,20.558-45.77,45.834v74.925c0,13.382,8.145,24.889,19.653,29.996v86.238
		c0,6.012,4.848,10.925,10.925,10.925h84.945c6.012,0,10.925-4.848,10.925-10.925v-86.303c11.572-5.042,19.717-16.614,19.717-29.996
		v-74.99C146.133,165.301,125.576,144.743,100.299,144.743z M30.481,276.105c-4.848-1.099-8.598-5.43-8.598-10.667v-74.99
		c0-11.055,7.499-20.299,17.648-23.079l23.79,48.032c1.875,3.685,5.624,6.077,9.762,6.077c4.202,0,7.952-2.327,9.826-6.077
		l23.79-48.032c10.214,2.78,17.713,12.154,17.713,23.208v74.925c0,5.172-3.685,9.568-8.598,10.667
		C115.103,276.234,31.127,276.234,30.481,276.105z M73.083,305.713c-6.012,0-10.925,4.848-10.925,10.925v54.109H41.6v-72.663h63.16
		v72.533H84.137v-54.109C84.008,310.626,79.16,305.713,73.083,305.713z"/>
</g>
<g>
</g>
<g>
</g>
<g>
</g>
<g>
</g>
<g>
</g>
<g>
</g>
<g>
</g>
<g>
</g>
<g>
</g>
<g>
</g>
<g>
</g>
<g>
</g>
<g>
</g>
<g>
</g>
<g>
</g>
</svg>
