<?xml version="1.0" encoding="iso-8859-1"?>
<!-- Generator: Adobe Illustrator 19.0.0, SVG Export Plug-In . SVG Version: 6.00 Build 0)  -->
<svg version="1.1" id="Layer_1" xmlns="http://www.w3.org/2000/svg" xmlns:xlink="http://www.w3.org/1999/xlink" x="0px" y="0px"
	 viewBox="0 0 392.663 392.663" style="enable-background:new 0 0 392.663 392.663;" xml:space="preserve">
<path style="fill:#FFFFFF;" d="M346.699,32.776c0-6.012-4.848-10.925-10.925-10.925H57.341c-6.012,0-10.925,4.848-10.925,10.925
	v215.661h300.283V32.776z"/>
<path style="fill:#FFC10D;" d="M324.202,54.562c0-6.012-4.849-10.925-10.925-10.925H78.481c-6.012,0-10.925,4.848-10.925,10.925
	v193.81l0,0h256.711l0,0V54.562H324.202z"/>
<path id="SVGCleanerId_0" style="fill:#194F82;" d="M294.335,96.323H98.844c-6.012,0-10.925-4.848-10.925-10.925
	c0-6.077,4.848-10.925,10.925-10.925h195.491c6.012,0,10.925,4.848,10.925,10.925C305.261,91.475,300.347,96.323,294.335,96.323z"/>
<g>
	<path id="SVGCleanerId_0_1_" style="fill:#194F82;" d="M294.335,96.323H98.844c-6.012,0-10.925-4.848-10.925-10.925
		c0-6.077,4.848-10.925,10.925-10.925h195.491c6.012,0,10.925,4.848,10.925,10.925C305.261,91.475,300.347,96.323,294.335,96.323z"
		/>
</g>
<g>
	<path style="fill:#194F82;" d="M294.335,153.988H98.844c-6.012,0-10.925-4.848-10.925-10.925c0-6.012,4.848-10.925,10.925-10.925
		h195.491c6.012,0,10.925,4.848,10.925,10.925C305.196,149.139,300.347,153.988,294.335,153.988z"/>
	<path style="fill:#194F82;" d="M222.578,211.717H98.844c-6.012,0-10.925-4.848-10.925-10.925c0-6.077,4.848-10.925,10.925-10.925
		h123.798c6.012,0,10.925,4.848,10.925,10.925C233.568,206.869,228.655,211.717,222.578,211.717z"/>
	<path style="fill:#194F82;" d="M381.737,248.436h-13.123V32.776c0-18.036-14.675-32.711-32.711-32.711H57.341
		c-18.036,0-32.711,14.675-32.711,32.711v215.661H10.925C4.913,248.436,0,253.285,0,259.362c0,6.077,4.848,10.925,10.925,10.925
		h163.103L90.311,374.885c-3.814,4.719-3.038,11.572,1.681,15.321c5.172,3.62,11.184,2.844,15.321-1.681l78.481-98.133v91.281
		c0,6.012,4.848,10.925,10.925,10.925c6.012,0,10.925-4.848,10.925-10.925v-91.281l78.222,97.681
		c3.814,4.719,10.602,5.495,15.321,1.681c4.719-3.814,5.495-10.667,1.681-15.321l-83.394-104.21h162.263
		c6.012,0,10.925-4.848,10.925-10.925C392.663,253.22,387.749,248.436,381.737,248.436z M346.699,248.436H46.416V32.776
		c0-6.012,4.848-10.925,10.925-10.925h278.497c6.012,0,10.925,4.848,10.925,10.925v215.661H346.699z"/>
</g>
<g>
</g>
<g>
</g>
<g>
</g>
<g>
</g>
<g>
</g>
<g>
</g>
<g>
</g>
<g>
</g>
<g>
</g>
<g>
</g>
<g>
</g>
<g>
</g>
<g>
</g>
<g>
</g>
<g>
</g>
</svg>
